<svg xmlns="http://www.w3.org/2000/svg" width="24" height="24" viewBox="0 0 24 24" fill="none">
  <g clip-path="url(#clip0_3524_3147)">
    <path d="M23 22.801L19.6293 19.405C19.481 19.2572 19.2803 19.1747 19.0714 19.176H3.35714C2.05531 19.176 1 18.1152 1 16.8067V4.17034C1 2.86179 2.05531 1.80103 3.35714 1.80103H20.6429C21.9447 1.80103 23 2.86179 23 4.17034V22.801Z" stroke="#000C2C"/>
    <path fill-rule="evenodd" clip-rule="evenodd" d="M7.80959 10.7214C7.80959 11.3 7.34056 11.7691 6.76197 11.7691C6.18339 11.7691 5.71436 11.3 5.71436 10.7214C5.71436 10.1429 6.18339 9.67383 6.76197 9.67383C7.34056 9.67383 7.80959 10.1429 7.80959 10.7214ZM12.262 11.7691C12.8406 11.7691 13.3096 11.3 13.3096 10.7214C13.3096 10.1429 12.8406 9.67383 12.262 9.67383C11.6834 9.67383 11.2144 10.1429 11.2144 10.7214C11.2144 11.3 11.6834 11.7691 12.262 11.7691ZM17.762 11.7691C18.3406 11.7691 18.8096 11.3 18.8096 10.7214C18.8096 10.1429 18.3406 9.67383 17.762 9.67383C17.1834 9.67383 16.7144 10.1429 16.7144 10.7214C16.7144 11.3 17.1834 11.7691 17.762 11.7691Z" fill="#000C2C"/>
  </g>
  <defs>
    <clipPath id="clip0_3524_3147">
      <rect width="24" height="24" fill="white"/>
    </clipPath>
  </defs>
</svg>