<svg xmlns="http://www.w3.org/2000/svg" width="24" height="24" viewBox="0 0 24 24" fill="none">
  <path fill-rule="evenodd" clip-rule="evenodd" d="M1 5.27644C1 4.02706 2.00143 2.99829 3.25033 2.99829H20.7535C22.0024 2.99829 23.0038 4.02706 23.0038 5.27644V17.7234C23.0038 18.9727 22.0024 20.0015 20.7536 20.0015H3.25033C2.00144 20.0015 1 18.9728 1 17.7234V5.27644ZM2 5.27644C2 4.88805 2.16917 4.54306 2.43361 4.30969L9.12577 11.7263L2.05787 18.1087C2.02031 17.9874 2 17.858 2 17.7234V5.27644ZM2.70392 18.8725C2.8697 18.9552 3.05539 19.0015 3.25033 19.0015H20.7536C20.9486 19.0015 21.1343 18.9552 21.3001 18.8724L14.2081 12.4682L13.8577 12.8564C12.8649 13.9567 11.1384 13.9567 10.1456 12.8564L9.79561 12.4686L2.70392 18.8725ZM14.8779 11.7259L21.946 18.1085C21.9836 17.9872 22.0038 17.8579 22.0038 17.7234V5.27644C22.0038 4.8879 21.8346 4.5428 21.5699 4.30943L14.8779 11.7259ZM3.49954 3.99829H20.5038L13.1153 12.1865C12.5196 12.8467 11.4837 12.8467 10.888 12.1865L3.49954 3.99829Z" fill="#000C2C"/>
</svg>