<svg width="155" height="153" viewBox="0 0 155 153" fill="none" xmlns="http://www.w3.org/2000/svg">
<path d="M59.6227 47.5226L59.847 45.7314C60.2946 43.716 61.1905 43.0442 61.1905 42.82L61.8624 42.1482C62.0858 42.1482 62.31 41.7007 62.7576 41.4765C63.206 41.2522 63.6535 41.0288 64.1011 41.0288H64.5496C66.1174 40.8046 67.6843 41.0289 69.0279 42.1482C70.1473 43.0443 70.8191 44.3879 71.0434 45.2831C71.2676 45.9549 71.2676 47.075 71.2676 47.7468V47.9702C71.2676 47.9702 71.2676 47.9703 71.2676 48.1945C71.2676 48.4178 71.2676 48.4178 71.2676 48.642C71.0434 49.7614 70.5958 50.8817 70.1473 52.0011C69.6998 52.6729 69.2522 53.7922 69.0279 54.4648C68.5804 56.0318 69.924 55.5842 70.1473 56.9278C70.1473 57.5996 69.6998 59.6151 69.2522 60.2869C69.028 60.5102 69.0279 60.5102 68.8037 60.7344H66.7883V71.7074C66.7883 71.9307 66.7883 72.155 67.0125 72.155L67.2368 72.3792L67.4602 73.4986L66.7883 76.8576H65.669H65.2213H64.1011L63.4293 73.4986L63.8778 72.155C63.8778 71.9308 64.1011 71.9308 64.1011 71.9308C64.3253 71.7074 64.3253 71.4832 64.3253 71.4832V71.259V60.5102L62.5342 60.5111C61.8624 60.2869 61.6381 59.615 61.4148 58.719C61.1905 58.0472 60.9663 56.9278 61.1905 56.256C61.1905 56.0318 61.4148 55.8085 61.6382 55.5843C62.0866 55.1367 62.31 54.9124 62.0866 54.4648C61.8624 53.1213 60.5188 51.3292 60.0712 49.7623C59.847 49.0905 59.847 48.8663 59.847 48.1945V47.7468C59.6228 47.7468 59.6227 47.5226 59.6227 47.5226V47.5226Z" fill="#C4C4C4" fill-opacity="0.15" />
<path d="M47.5332 141.322L30.7382 126.318L26.9316 130.796L43.7266 145.8L47.5332 141.322Z" fill="#D9D9D9" fill-opacity="0.15" />
<path d="M28.9921 121.05L32.1631 123.886L24.5489 132.398L21.3779 129.561L28.9921 121.05Z" fill="#D9D9D9" fill-opacity="0.15" />
<path d="M62.5372 9.66553H80.6758V18.1747H62.5372V9.66553Z" fill="#D9D9D9" fill-opacity="0.15" />
<path d="M81.5689 9.66553H100.604V18.1747H81.5689V9.66553Z" fill="#D9D9D9" fill-opacity="0.15" />
<path d="M71.9391 0.47998H90.9736V8.98917H71.9391V0.47998Z" fill="#D9D9D9" fill-opacity="0.15" />
<path d="M2.07206 69.2415C3.86324 66.5543 6.99888 66.5543 8.79007 69.2415C9.23765 69.9133 9.68602 71.0327 9.90939 71.9278C11.253 71.9278 12.5966 72.1521 13.7168 72.1521C13.9402 71.9278 15.0604 70.1367 15.0604 70.1367C15.0604 70.1367 16.404 71.9279 16.6274 72.3763C17.0758 72.3763 17.7477 72.3763 18.1953 72.3763L19.5388 70.3609C19.5388 70.3609 20.2106 71.4803 20.8824 72.6005C21.5542 72.6005 22.0026 72.6005 22.4502 72.6005C22.6744 72.1521 23.5696 71.0326 23.7939 70.8084C23.7939 70.8084 24.9132 72.152 25.1374 72.8238C26.481 73.0481 28.0488 73.4957 28.0488 74.1675C28.0488 75.0635 27.377 75.511 25.3616 75.7353C24.6898 75.7353 24.6898 75.9595 24.018 75.9595C23.5696 76.6313 22.4502 77.9749 22.4502 77.9749C21.7784 77.3031 20.8824 75.9595 20.8824 75.9595C20.8824 75.9595 19.5388 75.9595 19.0913 75.9595C18.6437 76.6313 17.5234 78.1982 17.5234 78.1982C17.5234 78.1982 16.404 76.8547 15.9564 76.1837C15.2846 76.1837 14.8363 76.1837 14.3887 76.1837C14.1645 76.8555 13.045 78.4224 12.8208 78.4224C12.5974 78.1991 11.7014 76.8555 11.2538 76.1837C10.8054 76.1837 10.1336 76.1837 9.46184 76.1837C9.23847 77.0789 8.79002 77.9749 8.34243 78.6467C6.55125 81.3339 3.41561 81.3339 1.62443 78.6467C0.0566139 76.1828 0.05666 71.9278 2.07206 69.2415V69.2415ZM3.41561 75.2868H4.31161V77.0789C4.31161 77.5265 4.75922 77.9741 5.43102 77.9741C6.10282 77.9741 6.55043 77.5265 6.55043 77.0789V75.2868H7.89398C8.34241 75.2868 8.56584 74.8393 8.56584 74.1675C8.56584 73.4957 8.34241 73.0481 7.89398 73.0481H6.55043V72.8238V71.2561C6.55043 70.8085 6.10282 70.3609 5.43102 70.3609C4.75922 70.3609 4.31161 70.8085 4.31161 71.2561V72.8238V73.0481H3.41561C2.96802 73.0481 2.74383 73.4957 2.74383 74.1675C2.74383 74.8393 2.96802 75.2868 3.41561 75.2868Z" fill="#C4C4C4" fill-opacity="0.15" />
<path d="M118.743 11.4661C120.311 12.1379 121.43 13.2573 122.325 14.3766C123.221 15.7211 124.117 16.8405 125.012 17.2881C126.132 17.7356 127.252 18.4074 126.804 19.5276C126.804 19.751 126.58 19.9753 126.58 20.1995L125.012 24.2302C125.012 24.4536 124.789 24.6779 124.789 24.9021C124.34 26.0215 122.997 25.5738 121.877 25.3496C120.982 25.1262 119.638 25.3496 117.847 25.5738C116.279 26.0214 114.712 26.0214 113.144 25.3496C109.562 24.006 107.77 19.7518 109.113 15.9444C110.905 11.9136 115.159 10.1225 118.743 11.4661V11.4661Z" fill="#C4C4C4" fill-opacity="0.15" />
<path d="M128.595 19.7335L130.386 20.8529H130.611L132.178 21.7481C132.402 21.9723 132.626 22.1965 132.626 22.6441V22.8683L131.282 26.4507H131.059C130.835 26.6749 130.386 26.6749 130.163 26.6749L128.819 26.4507H128.595L127.7 26.2273L126.356 26.0031L125.684 25.7789L126.804 22.8683L127.027 22.4199L128.148 19.5093L128.595 19.7335Z" fill="#C4C4C4" fill-opacity="0.15" />
<path d="M142.705 90.0669L99.4863 80.2141C99.4863 79.9899 99.4863 79.9899 99.4863 79.9899V76.1834C99.4863 76.1834 99.4863 75.064 100.83 75.064C102.397 75.064 140.689 75.064 140.689 75.064L139.57 83.1255L143.153 89.1718L142.705 90.0669Z" fill="#C4C4C4" fill-opacity="0.15" />
<path d="M141.584 74.8332C141.584 74.8332 141.36 74.3856 142.256 73.938C145.838 72.5936 149.646 74.1614 152.556 73.2663C155.244 72.3703 154.572 74.3857 153.9 75.0575C153.228 75.7293 153.005 76.401 153.452 77.5204C153.677 78.6398 153.004 81.5512 152.781 83.119C152.332 84.4626 151.437 85.3587 152.332 86.2538C152.556 86.9256 153.005 87.5974 152.333 87.8216C151.661 88.045 148.974 88.045 146.735 88.941C145.391 89.3886 144.719 89.3886 144.495 89.1652L144.047 88.4926L140.688 82.4472L141.584 74.8332V74.8332ZM145.615 85.1344C145.615 86.0296 146.063 86.0296 146.287 86.0296C146.51 86.0296 146.735 86.0296 147.631 85.8062C148.526 85.582 149.198 85.1344 148.974 84.4626C148.974 83.7909 148.75 78.864 148.75 77.0729C148.75 76.8487 148.527 76.6244 148.302 76.6244C148.078 76.6244 147.631 76.6244 146.735 76.8486C145.839 76.8486 145.615 77.2962 145.615 78.1922C145.615 78.6398 145.615 84.2384 145.615 85.1344V85.1344Z" fill="#C4C4C4" fill-opacity="0.15" />
<path d="M91.4228 102.6C91.4228 101.704 91.8703 100.808 92.3179 100.136C92.7664 99.6884 93.4381 99.4642 94.1099 99.4642H96.1253V95.4334C96.1253 94.7616 96.5729 94.314 97.0205 94.314H122.325C122.773 94.314 123.221 94.7616 123.221 95.4334V106.182C123.221 106.854 122.773 107.302 122.325 107.302H97.0205C96.5729 107.302 96.1253 106.854 96.1253 106.182V102.151H94.1099C94.1099 102.151 93.8857 102.376 93.8857 102.823L93.4382 107.302C93.4382 107.526 93.4381 107.75 94.7817 108.422C96.3487 109.094 107.769 114.244 108.665 114.916C109.785 115.587 110.456 116.931 110.456 118.722V120.067H110.905C111.353 120.067 111.8 120.514 111.8 120.962L112.696 144.922C112.696 145.371 112.248 145.818 111.8 145.818H106.874C106.426 145.818 105.978 145.37 105.978 144.922L106.65 120.738C106.65 120.29 107.098 119.842 107.546 119.842H107.994V118.499C107.994 117.379 107.545 116.931 107.322 116.931C106.426 116.483 95.0051 111.332 93.6615 110.66C92.3179 109.989 90.9743 109.094 90.9743 107.302L91.4228 102.6V102.6Z" fill="#C4C4C4" fill-opacity="0.15" />
<path d="M121.656 112.467C125.463 106.644 129.494 106.644 133.748 108.884L135.092 109.108C135.092 109.108 135.092 109.108 135.316 109.108C135.764 109.108 136.435 108.66 136.883 108.212L138.003 106.644L137.555 106.421C137.331 106.197 137.107 105.749 137.331 105.302L147.184 92.0889C147.408 91.8655 147.856 91.8655 148.304 92.0889L151.886 95.0003C152.335 95.2237 152.335 95.6722 152.111 96.1197L141.138 108.436C140.914 108.66 140.466 108.66 140.018 108.436L139.794 108.212L138.675 109.78C138.227 110.452 137.555 110.899 137.107 111.124C140.69 114.034 142.481 117.617 138.675 123.439C134.42 129.934 122.104 135.084 120.088 133.741C118.073 132.397 117.401 119.185 121.656 112.467V112.467Z" fill="#D9D9D9" fill-opacity="0.15" />
<path d="M19.7651 31.3711V28.2363C19.7651 24.6531 22.6757 21.7417 26.0347 21.7417C29.6179 21.7417 32.5293 24.6531 32.5293 28.0121V32.0429C32.5293 32.0429 32.5293 33.8341 30.9615 33.8341H18.1974V36.0737H15.9577V32.2671V31.3711H19.7651V31.3711ZM26.2589 30.6993C27.6025 30.6993 28.7219 29.5799 28.7219 28.2363C28.7219 26.8927 27.6025 25.7725 26.2589 25.7725C24.9153 25.7725 23.796 26.8927 23.796 28.2363C23.5717 29.5799 24.6911 30.6993 26.2589 30.6993Z" fill="#C4C4C4" fill-opacity="0.15" />
<path d="M76.8673 56.6899C76.8673 52.8833 78.4352 47.509 79.107 45.4936C79.5554 44.3742 79.7788 43.4782 80.2264 42.3588C80.2264 42.3588 80.2264 42.1346 80.4506 42.1346C80.4506 41.9112 80.4506 41.9113 80.4506 41.9113C80.4506 41.0152 79.5545 39.8958 79.7787 39.4474C79.7787 38.9998 80.2264 38.7756 81.1224 38.7756C81.7942 38.7756 82.6902 38.9998 83.1378 38.9998V38.7756V36.0884H83.5853C83.5853 35.6408 83.5853 35.4166 83.5853 34.969V34.7448C83.5853 34.2972 83.5853 34.073 83.8096 33.6254L82.6901 33.4012C82.6901 33.4012 82.6901 33.4012 82.6901 33.1778C82.6901 33.1778 82.466 28.9228 82.466 28.251C82.466 27.8034 82.6901 27.355 82.6901 27.355L86.2725 21.3088L87.6162 21.0854H88.0646H88.2879L89.6316 21.3088L93.2148 27.355C93.2148 27.355 93.439 27.8034 93.439 28.251C93.439 28.6986 93.2148 33.177 93.2148 33.177V33.4012L92.0953 33.6254C92.5429 34.073 92.543 34.2972 92.543 34.7448V34.969C92.543 35.4166 92.543 35.6408 92.3187 36.0884L92.9905 36.3126V39.2232C93.439 39.2232 94.335 38.9998 95.0059 38.9998C95.9019 38.9998 96.3496 39.2232 96.3496 39.6716C96.3496 40.1192 95.4543 41.2386 95.6777 42.1346C95.6777 42.3579 95.6777 42.5821 95.6777 42.8063C96.1261 43.9257 96.5738 44.8218 97.0213 45.9412C97.694 47.7332 99.0368 53.331 99.261 57.1375C99.261 60.4965 99.7094 63.1837 98.5891 66.5427C98.1415 68.1106 97.4697 69.4541 96.7979 71.0219C96.5737 71.6937 95.6786 71.9171 95.0068 71.9171C94.1107 71.6937 92.9914 71.6938 92.0953 71.4696C91.8711 71.4696 91.6478 71.2453 91.4236 71.0211C91.4236 71.0211 91.4236 71.0211 91.1993 70.7977C90.976 70.5735 90.976 70.3493 90.976 70.1259C90.976 69.6775 90.976 69.23 90.976 68.7824C90.976 68.5582 90.976 67.8863 90.976 67.4387C90.976 66.9903 90.976 66.5427 91.1993 66.3185C91.6478 66.0951 91.6477 65.4234 91.8711 64.7516C92.5429 57.5851 91.4236 50.4195 88.5122 43.7015C88.0646 42.1337 88.2888 41.4619 88.5122 41.0143V38.7748C88.2888 38.7748 88.0646 38.7748 87.617 38.7748C87.3928 38.7748 87.1686 38.7748 86.721 38.7748V41.0143C86.9452 41.4628 87.1694 42.1337 86.721 43.7015C83.8104 50.4195 82.6902 57.5851 83.362 64.7516C83.362 65.1991 83.5862 66.0951 84.0338 66.3185C84.258 66.5427 84.258 66.9903 84.258 67.4387C84.258 67.8863 84.258 68.334 84.258 68.7824C84.258 69.23 84.258 69.6775 84.258 70.1259C84.258 70.3493 84.258 70.5735 84.0338 70.7977C84.0338 70.7977 84.0338 70.7977 83.8104 71.0211C83.5862 71.2453 83.362 71.2454 83.1386 71.4696C82.2426 71.6929 81.1232 71.6929 80.2272 71.9171C79.5554 72.1413 78.8836 71.6937 78.436 71.0219C77.7642 69.6775 77.0924 68.1106 76.644 66.5427C76.4198 62.7362 76.8673 60.0489 76.8673 56.6899V56.6899ZM88.0646 28.251C88.7364 28.251 89.1839 27.5792 89.1839 26.6832C89.1839 25.7872 88.7364 25.1154 88.0646 25.1154C87.3928 25.1154 86.9452 25.7872 86.9452 26.6832C86.9444 27.355 87.3928 28.251 88.0646 28.251Z" fill="#C4C4C4" fill-opacity="0.15" />
<path d="M64.3261 81.9821C64.9979 81.3103 69.9247 80.8628 72.1635 80.8628C72.1635 80.8628 72.1634 80.8628 72.3876 80.8628C79.1056 80.6386 86.2712 80.1909 86.0479 80.1909C87.1672 80.1909 88.735 80.8627 89.1826 81.3103C89.1826 81.3103 89.4068 81.5346 89.4068 81.7588C89.6302 81.9822 90.302 81.9821 90.9738 81.9821C92.7658 81.9821 93.8852 81.9821 95.2288 82.4306H95.4531C96.1249 82.6539 96.5724 82.8782 96.5724 83.3257V83.55V83.7742C96.7958 83.7742 97.02 83.9975 97.2442 83.9975C97.4676 83.9975 97.4676 84.2218 97.4676 84.446C97.6918 84.446 97.916 84.4459 97.916 84.6693C97.916 84.6693 97.916 84.6693 97.916 84.8935V85.1169V86.4614C97.6918 86.4614 97.4676 86.6847 97.4676 86.6847C97.4676 86.9089 97.4676 86.9089 97.2442 87.1332C97.2442 87.1332 97.2442 87.1332 97.02 87.1332C97.02 87.1332 96.7966 87.1332 96.5724 87.3566C96.5724 87.3566 96.3482 87.3565 96.3482 87.5807V88.0283C96.3482 88.4768 95.9006 88.7001 95.0046 88.9243C93.4368 89.3719 92.094 89.5961 90.302 89.5961C90.0786 89.5961 89.6302 89.5961 89.4068 89.5961C89.1826 89.5961 88.9584 90.0437 88.735 90.2679C87.6148 91.3873 83.8082 91.6115 83.1364 91.6115C82.2404 91.6115 81.7928 92.0591 81.121 92.7309C80.225 93.6269 80.225 94.5229 80.225 95.1947C80.225 95.8665 80.2251 96.3141 79.5533 96.3141C79.3299 96.3141 79.1056 96.3141 79.1056 96.3141C78.8814 96.3141 77.3144 96.5375 77.0902 96.7617C76.4184 96.9859 76.1942 97.2101 75.7467 99.0013C75.2982 101.017 74.8507 103.928 74.8507 104.152C74.8507 104.152 74.8507 104.376 74.8507 104.6C74.8507 104.6 74.8506 104.823 75.0748 104.823C75.2982 104.823 75.2982 104.823 75.5224 104.823C76.1942 104.823 76.6426 105.048 76.866 105.048C77.3144 105.048 77.7621 105.272 77.7621 105.272C78.2097 105.495 79.1057 105.719 80.225 106.167C80.8968 106.391 81.3453 107.063 81.3453 107.286C81.3453 107.735 81.5686 111.989 81.5686 111.989C81.5686 112.213 81.5686 112.213 81.3453 112.437C81.3453 112.662 81.121 112.661 81.121 112.885C81.121 113.109 80.6735 113.333 80.6735 113.333C80.6735 113.333 80.4492 113.557 80.0016 113.557C79.7774 113.557 65.4463 113.557 65.4463 113.557C65.4463 113.557 65.222 113.557 64.9978 113.333C64.7745 113.109 64.7745 112.885 64.5503 112.885C64.5503 112.885 64.3261 112.662 64.3261 112.437L64.1018 110.198V107.735C64.1018 107.063 64.1018 106.615 64.3261 106.391C64.3261 106.167 64.5503 105.943 64.9978 105.719C65.222 105.719 65.4463 105.495 65.6697 105.495V105.048C65.6697 104.823 65.8938 103.927 65.8938 103.48L66.789 100.345C66.789 100.345 67.4609 97.2101 68.1327 94.0745C68.3569 93.1793 68.3569 92.7309 68.1327 92.5075C67.9093 92.2833 67.6851 92.2833 67.4609 92.2833C67.4609 92.2833 66.789 92.2833 66.1172 92.0591C65.8939 92.0591 65.6697 92.0591 65.4455 91.8357C65.4455 91.8357 64.9978 91.8357 64.9978 91.6115C64.7736 91.6115 64.7737 91.3881 64.5495 91.3881C63.8777 90.9397 63.6543 90.0445 63.6543 89.5961C63.2067 88.4767 62.9825 82.8781 64.3261 81.9821V81.9821Z" fill="#D9D9D9" fill-opacity="0.15" />
<path d="M19.0923 38.5386C25.1385 38.5386 29.841 39.8822 29.841 41.6742L30.0645 63.1718C30.0645 64.963 25.1384 66.3065 19.3156 66.3065C13.2694 66.3065 8.56688 64.963 8.56688 63.1718L8.34348 41.6742C8.34348 39.8822 13.2695 38.5386 19.0923 38.5386ZM19.3156 40.7782C14.1654 40.7782 10.8065 41.45 10.5831 42.346H10.5823C10.8065 43.2412 14.6131 44.1372 19.0923 44.1372C23.5707 44.1372 27.1538 43.4654 27.6014 42.346C27.3772 41.45 24.4666 40.7782 19.3156 40.7782ZM12.5976 56.6771C13.046 56.9013 13.4937 56.4538 13.4937 55.782V51.0794C13.7179 49.9592 14.6131 49.9592 15.2849 50.1834C15.7333 50.4076 16.1809 51.0794 16.1809 51.7512V51.9746C16.1809 52.6464 16.6285 53.3182 17.0769 53.5424C17.5245 53.7657 17.9721 53.3182 17.9721 52.6464V46.6001C15.9567 46.6001 13.9412 46.3768 12.5976 45.9284C12.15 45.9284 11.7025 45.705 11.4783 45.705V55.5578C11.4783 55.782 11.9258 56.4537 12.5976 56.6771V56.6771Z" fill="#D9D9D9" fill-opacity="0.15" />
<path d="M67.4626 153C61.4172 149.865 57.1622 144.491 56.042 138.22H99.0371C97.9177 144.491 93.6627 149.865 87.6165 153H67.4626Z" fill="#C4C4C4" fill-opacity="0.15" />
<path d="M95.6777 137.524V127.896H88.7364C88.7364 127.896 88.5122 129.239 86.0492 128.568C83.362 128.119 76.1956 126.552 76.1956 126.552C76.1956 126.552 75.3004 126.552 75.0762 127.224C74.8519 127.672 74.6286 129.687 74.6286 129.687L81.7942 131.479C81.7942 131.479 85.3774 132.151 87.3928 134.39C88.7364 135.957 88.7364 137.524 88.7364 137.524H95.6777V137.524Z" fill="#C4C4C4" fill-opacity="0.15" />
<path d="M95.9038 126.768C95.9038 126.768 96.5756 124.305 95.0078 122.961C93.4408 121.618 90.0818 120.498 85.6026 118.931C81.1242 117.587 80.9 117.363 80.9 117.363C80.9 117.363 80.0048 119.602 81.5718 120.274C83.3638 120.722 88.7382 122.514 88.7382 124.305C88.7382 125.873 88.7382 124.529 88.7382 126.768C88.7382 126.768 90.7536 126.992 92.0972 126.992C94.5602 126.992 95.9038 126.768 95.9038 126.768Z" fill="#C4C4C4" fill-opacity="0.15" />
<path d="M54.6953 17.0489C54.6953 22.4224 50.4404 26.6775 45.066 26.6775C39.6916 26.6775 35.4374 22.4224 35.4374 17.0489C35.4374 11.6745 39.6916 7.41943 45.066 7.41943C50.4404 7.64365 54.6953 11.8978 54.6953 17.0489Z" fill="#C4C4C4" fill-opacity="0.15" />
<path d="M35.8875 24.21C36.1108 23.9858 36.335 23.9859 36.5592 23.9859C36.7826 23.9859 37.231 24.2101 37.4544 24.4343C39.4698 26.673 42.157 27.7933 45.2917 27.7933C51.1146 27.7933 55.8172 23.0907 55.8172 17.2679C55.8172 14.1331 54.4736 11.2216 52.0098 9.20625C51.5622 8.75866 51.5622 8.08688 51.7864 7.63929C52.0098 7.41508 52.2339 7.19092 52.6815 7.19092C52.9057 7.19092 53.13 7.19085 53.3534 7.41506C56.2648 9.87805 57.8326 13.4613 57.8326 17.2679C57.8326 17.9397 57.8326 18.6114 57.6084 19.5074V23.9859C57.6084 23.9859 57.3842 26.0012 59.848 26.0012C60.0714 26.0012 60.2955 26.0012 60.2955 26.0012C62.7594 25.777 66.1184 25.3295 70.3726 25.5529C71.2686 25.5529 72.1646 25.3294 72.6122 25.3294C72.8364 25.3294 72.8364 25.5529 72.8364 25.5529C73.0597 26.2247 73.0597 30.7038 72.8364 31.599C72.8364 31.599 72.8364 31.8232 72.6122 31.8232C71.9404 31.8232 71.0444 31.8232 70.1492 31.8232C66.566 32.0474 63.6545 31.8232 61.4158 31.8232C59.4004 31.8232 58.2802 31.599 58.0568 32.7192C57.8326 33.8386 56.7132 34.0629 56.2648 34.0629C55.8172 34.0629 55.5929 33.6144 55.5929 32.495C55.5929 32.0474 55.5929 31.599 55.5929 30.9272L53.13 30.928V34.2871L52.9058 38.3178L52.6824 41.9002C52.6824 41.9002 51.5622 45.7076 51.1146 46.827C50.8904 47.4988 50.2186 49.29 49.9952 49.9618C49.3234 53.0975 48.4274 58.6952 46.8596 62.9502C46.6362 63.3978 46.1878 64.7414 45.9644 64.9656C45.9644 65.189 45.7402 65.189 45.7402 65.4132C45.516 65.6374 45.516 65.8616 45.2926 66.085C45.0684 66.085 45.0684 66.3092 44.8442 66.5334C44.8442 66.5334 44.8442 66.5334 44.8442 66.7568C44.6208 66.981 44.3966 66.981 44.1724 66.981C43.949 67.6528 43.5006 68.548 43.5006 68.548L41.261 67.6528L41.4851 66.7568C41.4851 66.7568 41.4852 66.5334 41.2618 66.5334C40.8134 66.5334 40.59 66.3092 40.3658 66.085L40.1416 65.8616C40.1416 65.6374 39.9182 64.7414 40.3658 64.5172C41.0376 64.0696 41.7094 63.622 41.9336 63.3978L42.157 63.1745C42.157 62.726 42.6054 61.6066 42.8288 60.263C42.8288 60.263 42.8288 60.263 42.8288 60.0388V59.8154C42.8288 59.8154 42.6054 59.8154 42.3812 59.5912C42.157 59.5912 42.157 59.3679 42.157 59.3679C42.157 59.3679 41.9336 59.1436 41.9336 58.9194C41.9336 58.696 41.9336 58.4718 41.9336 58.2476V58.0242L42.3812 56.4564C42.3812 56.2322 42.6054 56.008 42.6054 55.7847C42.6054 55.7847 42.6054 55.5604 42.3812 55.5604C42.3812 55.5604 41.9336 55.337 41.7094 55.337C41.2618 55.337 41.2618 55.1128 41.0376 54.6653C41.0376 54.441 40.5901 52.4256 40.5901 52.4256C40.3658 51.5296 41.0376 49.9627 41.2618 47.2755C41.2618 45.4835 41.2618 43.2446 41.2618 41.2292C41.2618 41.2292 41.2618 41.2292 41.2618 41.005C41.2618 37.8702 41.0376 35.1831 40.8134 33.8395C40.8134 33.6152 40.5901 32.7192 40.5901 32.7192C40.5901 32.7192 40.5901 30.2563 40.5901 29.5845C40.1416 29.3603 39.9182 29.3602 39.4698 29.1369C37.9029 28.4651 36.5592 27.3448 35.2156 26.2255C34.9914 26.0021 34.9915 25.7779 34.9915 25.3294C35.439 24.6576 35.6632 24.4343 35.8875 24.21V24.21Z" fill="#C4C4C4" fill-opacity="0.15" />
<path d="M7.2244 94.3048L10.5834 90.9458L10.8076 90.7216H12.5988C13.719 90.7216 14.3908 91.3933 14.8384 92.2893H17.0781C17.0781 91.6175 17.0781 90.9457 17.0781 90.4982C17.0781 87.811 18.4216 86.019 18.4216 86.019L22.004 81.9881C22.004 80.4212 25.1396 79.0776 29.1704 79.0776C33.2012 79.0776 36.336 80.4212 36.336 81.9881L39.9192 86.019C39.9192 86.019 41.2628 87.811 41.2628 90.4982C41.2628 90.9457 41.2628 91.6175 41.2628 92.2893H43.5016V91.841C43.5016 91.1692 43.95 90.7216 44.621 90.7216C45.2928 90.7216 45.7412 91.17 45.7412 91.841V105.949C45.7412 107.517 44.8451 108.636 43.5016 109.084L46.1887 113.115C46.4121 113.563 46.4122 114.235 45.7404 114.682C45.2928 114.906 44.621 114.906 44.1734 114.235L40.8144 109.084H19.3168C19.3168 112.219 16.853 114.682 13.7182 114.682C10.5834 114.682 8.11958 112.219 8.11958 109.084C8.11958 106.397 10.135 103.933 12.5988 103.486V101.695H8.79227C7.67288 101.695 6.77686 100.799 6.77686 99.6791V94.529C7.00107 94.529 7.00103 94.529 7.2244 94.3048V94.3048ZM29.3938 81.9881C26.7066 81.9881 24.4678 82.8842 24.4678 84.0036V84.2278C25.5872 84.8996 27.3784 85.3472 29.3938 85.3472C31.4092 85.3472 33.2012 84.8996 34.3206 84.2278V84.0036C34.3206 82.8842 32.081 81.9881 29.3938 81.9881ZM12.1512 109.309C12.1512 110.204 13.0472 111.1 13.9424 111.1C14.8384 111.1 15.7344 110.204 15.7344 109.309C15.7344 108.413 14.8384 107.517 13.9424 107.517C12.823 107.517 12.1512 108.413 12.1512 109.309ZM15.0626 103.933C17.078 104.382 18.645 105.725 19.3168 107.517H42.158C43.054 107.517 43.7258 106.845 43.7258 105.95V94.7524H41.4861C41.4861 96.992 41.4861 99.2308 41.4861 99.2308C41.4861 99.2308 40.8143 105.501 29.3938 105.501C17.9732 105.501 17.3023 99.2308 17.3023 99.2308C17.3023 99.2308 17.3023 96.992 17.3023 94.7524H15.0626V102.366V103.933Z" fill="#C4C4C4" fill-opacity="0.15" />
<path d="M123.445 41.9051L105.978 36.5307L132.402 33.396L148.974 37.2025L123.445 41.9051Z" fill="#D9D9D9" fill-opacity="0.15" />
<path d="M148.974 45.0501V49.0809L123.445 54.4553L105.978 47.5131V43.7065L123.445 50.2003L148.974 45.0501Z" fill="#D9D9D9" fill-opacity="0.15" />
<path d="M123.445 43.9078L148.974 39.2052V43.0127L123.445 48.1629L105.978 41.8924V38.3101L123.445 43.9078Z" fill="#D9D9D9" fill-opacity="0.15" />
<path d="M105.978 49.314L123.445 56.4804L148.974 50.8818V52.2254V54.9126L123.445 60.7346L105.978 53.1214V50.6576V49.314Z" fill="#D9D9D9" fill-opacity="0.15" />
<path d="M148.974 56.695V63.6372L144.271 64.7566V62.2937L138.449 63.8615V66.5486L133.97 67.668V65.2042L127.924 66.772V69.4592L123.445 70.5795L120.086 68.7875V66.3244L116.503 64.309V66.772L112.696 64.5324V62.2937L109.113 60.5025V62.5178L105.978 60.95V54.9038L123.445 62.7412L148.974 56.695Z" fill="#D9D9D9" fill-opacity="0.15" />
<path d="M37.231 119.179C37.231 118.507 37.6787 117.835 38.5747 117.835C39.0223 117.835 39.2465 118.059 39.4698 118.283C40.3659 119.179 43.2772 120.97 44.6208 121.194C45.0684 121.194 45.516 121.418 45.9645 121.418C48.2032 121.418 49.5468 120.522 49.9953 119.178C50.2186 118.955 50.2186 118.506 50.2186 118.059V117.835V117.611C50.2186 117.163 50.4428 116.492 50.4428 116.043V115.82V115.596V115.371C50.4428 115.371 50.4428 114.252 50.4428 113.804V106.862L49.771 104.847C49.3226 95.8901 49.5468 76.1838 49.5468 76.1838C49.5468 75.9604 51.1146 75.2886 53.3542 75.2886C55.593 75.2886 57.3851 75.9604 57.3851 76.1838C57.3851 76.1838 56.7133 95.8901 56.2648 104.847L55.3696 106.862V112.237C55.3696 116.715 55.8172 118.059 55.8172 118.283C56.489 120.074 57.6093 122.314 60.9682 122.314C60.9682 121.418 61.1916 121.418 61.1916 121.418H64.5506C65.2224 121.418 65.8942 121.418 65.8942 121.418L66.1176 121.866C66.3418 122.538 66.3418 123.657 66.3418 125.001C66.3418 126.344 66.1176 127.688 66.1176 128.136C66.1176 128.36 65.8942 128.36 65.8942 128.36C65.8942 128.36 61.4158 128.584 61.1916 128.584C60.9674 128.584 60.9674 127.688 60.9674 127.688C60.7441 127.688 60.744 127.688 60.5198 127.688C58.5044 127.688 57.3842 128.36 56.9366 128.584H56.7132C56.2648 128.807 56.0414 129.032 56.0414 129.032C55.8172 129.032 55.8172 129.032 54.9212 129.032C52.9058 129.032 49.771 128.584 46.1887 127.24C45.2927 126.792 44.1733 126.344 43.2773 125.673C41.7095 125.001 37.231 121.194 37.0068 120.747C37.4544 119.851 37.231 119.626 37.231 119.179V119.179Z" fill="#C4C4C4" fill-opacity="0.15" />
<path fill-rule="evenodd" clip-rule="evenodd" d="M70.2752 34.7085C62.3786 35.5311 54.3093 39.3836 48.2701 45.2149C43.2866 50.0264 39.9057 55.506 37.9652 61.9163C36.6994 66.0977 36.4803 67.802 36.5013 73.3047C36.5226 78.8959 36.9664 81.6689 38.5069 85.8331C40.6831 91.7155 43.3482 95.8903 47.7254 100.273C53.3486 105.904 59.5663 109.256 67.5563 110.965C71.1766 111.74 77.9749 111.795 81.796 111.082C85.527 110.385 89.9072 108.856 93.3054 107.066C96.3271 105.474 96.3288 105.473 96.7333 106.003C96.9557 106.295 99.772 109.649 102.991 113.458C106.211 117.266 110.536 122.394 112.602 124.853C122.363 136.473 123.61 137.86 124.948 138.586C126.682 139.526 129.082 139.744 131.128 139.148C133.16 138.557 135.534 136.227 136.121 134.247C136.911 131.582 136.454 128.891 134.866 126.863C134.467 126.354 132.281 124.376 130.008 122.469C127.735 120.562 122.833 116.443 119.114 113.316C115.394 110.189 110.251 105.871 107.683 103.719L103.015 99.8073L104.312 98.276C113.113 87.8876 115.91 74.0217 111.801 61.1417C110.178 56.052 107.069 50.7605 103.403 46.8465C96.5818 39.5644 88.0008 35.3738 78.5068 34.6882C74.5912 34.4056 73.1496 34.4091 70.2752 34.7085ZM81.4203 43.1895C93.0116 45.7894 101.867 54.4693 104.725 66.032C105.493 69.1392 105.665 74.6873 105.099 78.0764C103.597 87.07 98.4058 94.5903 90.354 99.4362C86.6496 101.665 81.4777 103.219 76.6778 103.545C70.6248 103.956 63.4368 102.001 58.1282 98.5023C55.6096 96.8423 52.0207 93.3338 50.1052 90.66C40.4635 77.1999 43.3955 58.6351 56.7507 48.5819C60.8464 45.499 65.0648 43.7312 70.5256 42.8096C73.1637 42.3644 78.584 42.5535 81.4203 43.1895ZM63.1894 61.6961C62.3213 61.8627 60.9373 63.3942 60.6332 64.5255C59.6717 68.1009 64.0872 70.9917 66.8956 68.6253C67.9304 67.7533 68.3968 66.7753 68.3968 65.4762C68.3968 62.7499 66.1605 61.1266 63.1894 61.6961ZM82.0956 62.0979C80.7541 62.911 80.1718 63.901 80.1698 65.3709C80.1668 67.5775 81.4409 69.089 83.5945 69.4338C85.3612 69.7167 87.5244 68.218 87.9266 66.4325C88.3379 64.6073 87.5409 62.843 85.9348 62.0227C84.6282 61.3551 83.2772 61.3817 82.0956 62.0979ZM70.8162 76.3096C65.8852 77.2049 60.6976 80.022 57.868 83.3403C56.2245 85.2681 56.2097 85.3148 57.0345 85.9904C57.4294 86.3136 57.8928 86.5822 58.0643 86.5872C58.2359 86.5923 59.0446 86.0568 59.8616 85.3978C67.3026 79.3937 76.8861 78.4448 85.6781 82.8413C86.7112 83.3579 88.1733 84.2449 88.9272 84.8122C89.681 85.3797 90.3573 85.8394 90.4299 85.8336C90.5025 85.8281 90.9418 85.4981 91.4064 85.1003L92.2509 84.3771L91.6894 83.5876C89.9092 81.084 84.9117 77.9369 80.9194 76.8051C78.8089 76.207 72.9618 75.9201 70.8162 76.3096Z" fill="#C4C4C4" />
</svg>