<svg width="32" height="32" viewBox="0 0 32 32" fill="none" xmlns="http://www.w3.org/2000/svg">
<g id="Yandex_znak 1">
<g clip-path="url(#clip0_7901_12139)">
<rect width="32" height="32" rx="16" fill="#ED1C24"/>
<path id="Vector" d="M15.9987 31.967C24.8172 31.967 31.9661 24.8182 31.9661 15.9996C31.9661 7.18108 24.8172 0.0322266 15.9987 0.0322266C7.1801 0.0322266 0.03125 7.18108 0.03125 15.9996C0.03125 24.8182 7.1801 31.967 15.9987 31.967Z" fill="#ED1C24"/>
<path id="Glyph" d="M20.0013 24.001H17.5466V10.1668H16.4531C14.4486 10.1668 13.3987 11.3088 13.3987 13.0135C13.3987 14.9476 14.1228 15.8437 15.621 16.9858L16.8556 17.9339L13.3074 23.9986H10.668L13.8614 18.5841C12.025 17.0898 10.9917 15.6309 10.9917 13.1696C10.9917 10.0935 12.8737 8.00098 16.4365 8.00098H19.9847V23.9962H20.0013V24.001Z" fill="white"/>
</g>
</g>
<defs>
<clipPath id="clip0_7901_12139">
<rect width="32" height="32" rx="16" fill="white"/>
</clipPath>
</defs>
</svg>
