<svg xmlns="http://www.w3.org/2000/svg" width="16" height="16" viewBox="0 0 16 16" fill="none">
  <path fill-rule="evenodd" clip-rule="evenodd" d="M10.2 3.5H5.8C4.93517 3.5 4.37676 3.50117 3.95175 3.53589C3.54426 3.56918 3.39318 3.6257 3.31901 3.66349C3.03677 3.8073 2.8073 4.03677 2.66349 4.31901C2.6257 4.39318 2.56918 4.54426 2.53589 4.95175C2.50117 5.37676 2.5 5.93517 2.5 6.8V9.2C2.5 11.0648 2.50117 11.6232 2.53589 12.0482C2.56918 12.4557 2.6257 12.6068 2.66349 12.681C2.8073 12.9632 3.03677 13.1927 3.31901 13.3365C3.39318 13.3743 3.54426 13.4308 3.95175 13.4641C4.37676 13.4988 4.93517 13.5 5.8 13.5H10.2C11.0648 13.5 11.6232 13.4988 12.0482 13.4641C12.4557 13.4308 12.6068 13.3743 12.681 13.3365C12.9632 13.1927 13.1927 12.9632 13.3365 12.681C13.3743 12.6068 13.4308 12.4557 13.4641 12.0482C13.4988 11.6232 13.5 11.0648 13.5 9.2V6.8C13.5 5.93517 13.4988 5.37676 13.4641 4.95175C13.4308 4.54426 13.3743 4.39318 13.3365 4.31901C13.1927 4.03677 12.9632 3.8073 12.681 3.66349C12.6068 3.6257 12.4557 3.56918 12.0482 3.53589C11.6232 3.50117 11.0648 3.5 10.2 3.5ZM1.32698 3.63803C1 4.27976 1 5.11984 1 6.8V9.2C1 11.8802 1 12.7202 1.32698 13.362C1.6146 13.9265 2.07354 14.3854 2.63803 14.673C3.27976 15 4.11984 15 5.8 15H10.2C11.8802 15 12.7202 15 13.362 14.673C13.9265 14.3854 14.3854 13.9265 14.673 13.362C15 12.7202 15 11.8802 15 9.2V6.8C15 5.11984 15 4.27976 14.673 3.63803C14.3854 3.07354 13.9265 2.6146 13.362 2.32698C12.7202 2 11.8802 2 10.2 2H5.8C4.11984 2 3.27976 2 2.63803 2.32698C2.07354 2.6146 1.6146 3.07354 1.32698 3.63803Z" fill="#6c6c6c"/>
  <path fill-rule="evenodd" clip-rule="evenodd" d="M5.5 0.75C5.91421 0.75 6.25 1.08579 6.25 1.5V4C6.25 4.41421 5.91421 4.75 5.5 4.75C5.08579 4.75 4.75 4.41421 4.75 4V1.5C4.75 1.08579 5.08579 0.75 5.5 0.75Z" fill="#6c6c6c"/>
  <path fill-rule="evenodd" clip-rule="evenodd" d="M1.25 7.5C1.25 7.08579 1.58579 6.75 2 6.75H14C14.4142 6.75 14.75 7.08579 14.75 7.5C14.75 7.91421 14.4142 8.25 14 8.25H2C1.58579 8.25 1.25 7.91421 1.25 7.5Z" fill="#6c6c6c"/>
  <path fill-rule="evenodd" clip-rule="evenodd" d="M10.5 0.75C10.9142 0.75 11.25 1.08579 11.25 1.5V4C11.25 4.41421 10.9142 4.75 10.5 4.75C10.0858 4.75 9.75 4.41421 9.75 4V1.5C9.75 1.08579 10.0858 0.75 10.5 0.75Z" fill="#6c6c6c"/>
</svg>