<svg xmlns="http://www.w3.org/2000/svg" width="24" height="24" viewBox="0 0 24 24" fill="none">
  <path d="M22.9137 19.8609L22.4855 19.6028L22.485 19.6037L22.9137 19.8609ZM21.7168 21.8559L21.288 21.5987L21.2851 21.6036L21.7168 21.8559ZM20.5187 22.7845L20.6511 23.2667L20.6553 23.2655L20.5187 22.7845ZM1.21553 3.48255L0.73455 3.34589L0.733372 3.35018L1.21553 3.48255ZM2.14532 2.28294L2.39764 2.71464L2.40253 2.71171L2.14532 2.28294ZM4.14047 1.0861L4.39768 1.51487L4.39824 1.51453L4.14047 1.0861ZM4.95084 1.26833L4.53446 1.54515L4.53477 1.54561L4.95084 1.26833ZM8.12998 6.03881L8.54703 5.763L8.54605 5.76153L8.12998 6.03881ZM7.99878 6.84798L8.30576 7.24266L8.30735 7.24141L7.99878 6.84798ZM6.21263 8.23728L6.51634 8.63449L6.51961 8.63195L6.21263 8.23728ZM5.8485 10.0017L6.28655 9.76062L6.28462 9.75718L5.8485 10.0017ZM5.99033 10.2594L6.42931 10.02L6.42836 10.0183L5.99033 10.2594ZM9.3953 14.6037L9.04179 14.9573L9.04179 14.9573L9.3953 14.6037ZM13.7395 18.0081L13.9808 17.5701L13.9789 17.5691L13.7395 18.0081ZM13.9976 18.1503L14.2421 17.7141L14.2389 17.7123L13.9976 18.1503ZM15.7621 17.7862L15.3675 17.4791L15.3649 17.4824L15.7621 17.7862ZM17.1515 16.0001L16.7582 15.6914L16.7569 15.6931L17.1515 16.0001ZM17.9607 15.8689L18.2382 15.4529L18.2363 15.4517L17.9607 15.8689ZM22.7315 19.0506L22.4541 19.4666L22.455 19.4672L22.7315 19.0506ZM14.6987 9.68016L14.2025 9.74218C14.2309 9.96915 14.4097 10.1479 14.6366 10.1763L14.6987 9.68016ZM13.9463 3.66182L14.2999 3.30826C14.1488 3.15722 13.9185 3.11882 13.7266 3.21267C13.5348 3.30652 13.4237 3.51189 13.4502 3.72384L13.9463 3.66182ZM15.8234 5.53879L15.4699 5.89235C15.665 6.08748 15.9813 6.08762 16.1766 5.89268L15.8234 5.53879ZM19.965 1.40495L20.3186 1.05138C20.1235 0.856259 19.8071 0.856115 19.6118 1.05106L19.965 1.40495ZM22.9744 4.41411L23.328 4.76768C23.4217 4.67391 23.4744 4.54673 23.4744 4.41411C23.4744 4.2815 23.4217 4.15432 23.328 4.06055L22.9744 4.41411ZM18.8365 8.55172L18.483 8.19815C18.3892 8.29192 18.3365 8.4191 18.3365 8.55172C18.3365 8.68433 18.3892 8.81151 18.483 8.90528L18.8365 8.55172ZM20.7174 10.4324L20.6554 10.9286C20.8673 10.9551 21.0727 10.844 21.1665 10.6521C21.2604 10.4602 21.222 10.2299 21.0709 10.0789L20.7174 10.4324ZM22.485 19.6037L21.2881 21.5987L22.1456 22.1131L23.3425 20.1181L22.485 19.6037ZM21.2851 21.6036C21.0858 21.9447 20.7622 22.1955 20.3821 22.3035L20.6553 23.2655C21.2838 23.0869 21.8189 22.6722 22.1485 22.1082L21.2851 21.6036ZM20.3863 22.3023C18.2217 22.8966 14.1772 22.4885 7.84434 16.156L7.13726 16.8632C13.5829 23.3083 17.9825 23.9993 20.6511 23.2666L20.3863 22.3023ZM7.84434 16.156C1.51146 9.82356 1.10339 5.77976 1.69769 3.61491L0.733372 3.35018C0.000712454 6.01901 0.69165 10.418 7.13726 16.8632L7.84434 16.156ZM1.6965 3.6192C1.80466 3.23851 2.05591 2.91434 2.39763 2.71461L1.89302 1.85127C1.32843 2.18126 0.913292 2.71685 0.734569 3.3459L1.6965 3.6192ZM2.40253 2.71171L4.39768 1.51487L3.88326 0.657329L1.88811 1.85417L2.40253 2.71171ZM4.39824 1.51453C4.44454 1.48667 4.50457 1.50018 4.53446 1.54515L5.36722 0.991517C5.04128 0.501238 4.38723 0.354105 3.88269 0.657667L4.39824 1.51453ZM7.71293 6.31462C7.74295 6.36001 7.73311 6.42091 7.69021 6.45456L8.30735 7.24141C8.76014 6.88628 8.86447 6.243 8.54702 5.763L7.71293 6.31462ZM7.6918 6.45332L5.90565 7.84261L6.51961 8.63195L8.30576 7.24265L7.6918 6.45332ZM5.90893 7.84008C5.1677 8.40683 4.95599 9.43235 5.41238 10.2463L6.28462 9.75718C6.07168 9.37744 6.17042 8.89896 6.51632 8.63448L5.90893 7.84008ZM5.41047 10.2428L5.5523 10.5005L6.42836 10.0183L6.28653 9.76063L5.41047 10.2428ZM5.55135 10.4988C6.07321 11.4558 6.72498 12.641 9.04179 14.9573L9.74882 14.2501C7.50811 12.0099 6.91154 10.9044 6.42931 10.02L5.55135 10.4988ZM9.04179 14.9573C11.3585 17.2735 12.5434 17.9253 13.5001 18.447L13.9789 17.5691C13.0949 17.087 11.9896 16.4903 9.74881 14.2501L9.04179 14.9573ZM13.4982 18.446L13.7563 18.5882L14.2389 17.7123L13.9808 17.5701L13.4982 18.446ZM13.7531 18.5864C14.5669 19.0427 15.5925 18.8311 16.1593 18.0899L15.3649 17.4824C15.1005 17.8283 14.6219 17.927 14.2421 17.7141L13.7531 18.5864ZM16.1568 18.0932L17.5462 16.3071L16.7569 15.6931L15.3675 17.4792L16.1568 18.0932ZM17.5448 16.3089C17.5785 16.266 17.6395 16.256 17.6852 16.2862L18.2363 15.4517C17.7564 15.1348 17.1135 15.2389 16.7582 15.6914L17.5448 16.3089ZM17.6833 16.2849L22.4541 19.4666L23.009 18.6346L18.2382 15.453L17.6833 16.2849ZM22.455 19.4672C22.4998 19.4969 22.5133 19.5567 22.4855 19.6028L23.342 20.119C23.6461 19.6144 23.4989 18.9598 23.008 18.634L22.455 19.4672ZM15.1948 9.61813L14.4425 3.5998L13.4502 3.72384L14.2025 9.74218L15.1948 9.61813ZM13.5928 4.01539L15.4699 5.89235L16.177 5.18522L14.2999 3.30826L13.5928 4.01539ZM16.1766 5.89268L20.3183 1.75883L19.6118 1.05106L15.4702 5.1849L16.1766 5.89268ZM19.6115 1.75851L22.6209 4.76768L23.328 4.06055L20.3186 1.05138L19.6115 1.75851ZM22.6209 4.06055L18.483 8.19815L19.1901 8.90528L23.328 4.76768L22.6209 4.06055ZM18.483 8.90528L20.3638 10.786L21.0709 10.0789L19.1901 8.19815L18.483 8.90528ZM20.7794 9.93631L14.7607 9.18402L14.6366 10.1763L20.6554 10.9286L20.7794 9.93631ZM4.53477 1.54561L7.7139 6.31609L8.54605 5.76153L5.36692 0.991055L4.53477 1.54561Z" fill="#000C2C"/>
</svg>