<?xml version="1.0" encoding="UTF-8" standalone="no"?>
<svg
   width="491"
   height="116"
   viewBox="0 0 491 116"
   fill="none"
   version="1.1"
   id="svg74"
   sodipodi:docname="new_logo.svg"
   inkscape:version="1.2.2 (b0a8486541, 2022-12-01)"
   xmlns:inkscape="http://www.inkscape.org/namespaces/inkscape"
   xmlns:sodipodi="http://sodipodi.sourceforge.net/DTD/sodipodi-0.dtd"
   xmlns="http://www.w3.org/2000/svg"
   xmlns:svg="http://www.w3.org/2000/svg">
  <defs
     id="defs78">
    <rect
       x="141.55548"
       y="15.058186"
       width="265.59144"
       height="102.03947"
       id="rect1429" />
    <rect
       x="142.88"
       y="16.823256"
       width="337.93945"
       height="63.975286"
       id="rect366" />
  </defs>
  <sodipodi:namedview
     id="namedview76"
     pagecolor="#ffffff"
     bordercolor="#000000"
     borderopacity="0.25"
     inkscape:showpageshadow="2"
     inkscape:pageopacity="0.0"
     inkscape:pagecheckerboard="0"
     inkscape:deskcolor="#d1d1d1"
     showgrid="false"
     inkscape:zoom="2.0344828"
     inkscape:cx="199.55932"
     inkscape:cy="58"
     inkscape:window-width="1920"
     inkscape:window-height="1128"
     inkscape:window-x="0"
     inkscape:window-y="0"
     inkscape:window-maximized="1"
     inkscape:current-layer="svg74" />
  <path
     d="M71.7463 35.4873L71.5771 34.136C71.2395 32.6154 70.5635 32.1086 70.5635 31.9394L70.0566 31.4326C69.8881 31.4326 69.7189 31.0949 69.3812 30.9257C69.0429 30.7566 68.7052 30.588 68.3675 30.588H68.0292C66.8463 30.4189 65.6641 30.588 64.6504 31.4326C63.8059 32.1086 63.299 33.1223 63.1299 33.7977C62.9607 34.3045 62.9607 35.1497 62.9607 35.6565V35.8251C62.9607 35.8251 62.9607 35.8251 62.9607 35.9942C62.9607 36.1628 62.9607 36.1627 62.9607 36.3319C63.1299 37.1764 63.4675 38.0217 63.8059 38.8662C64.1436 39.373 64.4813 40.2175 64.6504 40.725C64.9881 41.9073 63.9744 41.5695 63.8059 42.5832C63.8059 43.0901 64.1436 44.6107 64.4813 45.1175C64.6504 45.2861 64.6504 45.286 64.8196 45.4552H66.3402V53.7339C66.3402 53.9025 66.3401 54.0716 66.171 54.0716L66.0018 54.2408L65.8333 55.0853L66.3402 57.6196H67.1846H67.5224H68.3675L68.8744 55.0853L68.536 54.0716C68.536 53.9025 68.3675 53.9025 68.3675 53.9025C68.1984 53.734 68.1984 53.5648 68.1984 53.5648V53.3956V45.286L69.5498 45.2867C70.0566 45.1175 70.2258 44.6106 70.3943 43.9346C70.5635 43.4278 70.7326 42.5833 70.5635 42.0764C70.5635 41.9073 70.3943 41.7387 70.2258 41.5696C69.8874 41.2319 69.7189 41.0627 69.8874 40.725C70.0566 39.7113 71.0703 38.3593 71.408 37.1771C71.5771 36.6702 71.5771 36.5011 71.5771 35.9942V35.6565C71.7463 35.6565 71.7463 35.4873 71.7463 35.4873V35.4873Z"
     fill="#000C2C"
     id="path16" />
  <path
     d="M80.8679 106.267L93.5392 94.9468L96.4111 98.3256L83.7399 109.645L80.8679 106.267Z"
     fill="#ED1C24"
     id="path18" />
  <path
     d="M94.8561 90.9685L92.4636 93.1086L98.2082 99.5305L100.601 97.3903L94.8561 90.9685Z"
     fill="#ED1C24"
     id="path20" />
  <path
     d="M69.5475 6.92261H55.8625V13.3425H69.5475V6.92261Z"
     fill="#ED1C24"
     id="path22" />
  <path
     d="M55.1876 6.92261H40.8267V13.3425H55.1876V6.92261Z"
     fill="#ED1C24"
     id="path24" />
  <path
     d="M62.4544 0H48.0935V6.41989H62.4544V0Z"
     fill="#ED1C24"
     id="path26" />
  <path
     d="M115.164 51.8831C113.813 49.8557 111.447 49.8557 110.096 51.8831C109.758 52.3899 109.42 53.2345 109.251 53.9099C108.238 53.9099 107.224 54.079 106.379 54.079C106.21 53.9099 105.365 52.5585 105.365 52.5585C105.365 52.5585 104.351 53.9099 104.183 54.2482C103.844 54.2482 103.338 54.2482 103 54.2482L101.986 52.7277C101.986 52.7277 101.479 53.5722 100.972 54.4174C100.466 54.4174 100.127 54.4174 99.7896 54.4174C99.6205 54.0791 98.9451 53.2345 98.7759 53.0653C98.7759 53.0653 97.9314 54.079 97.7622 54.5859C96.7485 54.755 95.5657 55.0927 95.5657 55.5996C95.5657 56.2756 96.0725 56.6133 97.5931 56.7824C98.0999 56.7824 98.0999 56.9516 98.6068 56.9516C98.9451 57.4585 99.7896 58.4722 99.7896 58.4722C100.296 57.9653 100.972 56.9516 100.972 56.9516C100.972 56.9516 101.986 56.9516 102.324 56.9516C102.662 57.4585 103.507 58.6407 103.507 58.6407C103.507 58.6407 104.351 57.627 104.689 57.1208C105.196 57.1208 105.534 57.1208 105.872 57.1208C106.041 57.6276 106.886 58.8098 107.055 58.8098C107.223 58.6413 107.899 57.6276 108.237 57.1208C108.575 57.1208 109.082 57.1208 109.589 57.1208C109.757 57.7962 110.096 58.4721 110.433 58.979C111.785 61.0064 114.151 61.0064 115.502 58.979C116.685 57.1201 116.685 53.9099 115.164 51.8831V51.8831ZM114.151 56.4441H113.475V57.7962C113.475 58.1338 113.137 58.4715 112.63 58.4715C112.123 58.4715 111.785 58.1338 111.785 57.7962V56.4441H110.772C110.433 56.4441 110.265 56.1064 110.265 55.5996C110.265 55.0927 110.433 54.755 110.772 54.755H111.785V54.5859V53.403C111.785 53.0653 112.123 52.7277 112.63 52.7277C113.137 52.7277 113.475 53.0653 113.475 53.403V54.5859V54.755H114.151C114.488 54.755 114.657 55.0927 114.657 55.5996C114.657 56.1064 114.488 56.4441 114.151 56.4441Z"
     fill="#000C2C"
     id="path28" />
  <path
     d="M27.1425 8.28474C25.9597 8.79159 25.1151 9.63614 24.4397 10.4807C23.7637 11.495 23.0877 12.3396 22.4124 12.6772C21.5672 13.0149 20.7227 13.5217 21.0603 14.3669C21.0603 14.5354 21.2295 14.7046 21.2295 14.8738L22.4124 17.9149C22.4124 18.0834 22.5809 18.2526 22.5809 18.4218C22.9192 19.2663 23.9329 18.9286 24.7775 18.7594C25.4528 18.5909 26.4671 18.7594 27.8185 18.9286C29.0014 19.2663 30.1836 19.2663 31.3665 18.7594C34.0692 17.7457 35.4213 14.5361 34.4076 11.6635C33.0556 8.62242 29.8459 7.27104 27.1425 8.28474V8.28474Z"
     fill="#000C2C"
     id="path30" />
  <path
     d="M19.7091 14.5176L18.3577 15.3621H18.1885L17.0057 16.0375C16.8372 16.2067 16.668 16.3758 16.668 16.7135V16.8827L17.6817 19.5854H17.8502C18.0193 19.7546 18.3577 19.7546 18.5262 19.7546L19.5399 19.5854H19.7091L20.3845 19.4169L21.3988 19.2477L21.9056 19.0786L21.0605 16.8827L20.8919 16.5443L20.0467 14.3484L19.7091 14.5176Z"
     fill="#000C2C"
     id="path32" />
  <path
     d="M9.06393 67.5871L41.6709 60.1534C41.6709 59.9843 41.6709 59.9843 41.6709 59.9843V57.1124C41.6709 57.1124 41.6708 56.2678 40.6571 56.2678C39.4749 56.2678 10.5845 56.2678 10.5845 56.2678L11.429 62.35L8.72559 66.9117L9.06393 67.5871Z"
     fill="#000C2C"
     id="path34" />
  <path
     d="M9.90923 56.0991C9.90923 56.0991 10.0784 55.7614 9.4024 55.4237C6.69962 54.4094 3.82704 55.5923 1.63112 54.9169C-0.396281 54.2409 0.110541 55.7614 0.617391 56.2683C1.12424 56.7751 1.2928 57.282 0.955113 58.1265C0.785952 58.971 1.29342 61.1676 1.46195 62.3505C1.80027 63.3642 2.47566 64.0402 1.80029 64.7156C1.63113 65.2224 1.29276 65.7292 1.79961 65.8984C2.30646 66.0669 4.33385 66.0669 6.02356 66.743C7.03726 67.0806 7.54413 67.0807 7.71329 66.9121L8.05101 66.4046L10.5852 61.8436L9.90923 56.0991V56.0991ZM6.86811 63.871C6.86811 64.5464 6.53044 64.5464 6.36128 64.5464C6.19275 64.5464 6.02357 64.5464 5.34755 64.3778C4.67218 64.2087 4.16473 63.871 4.33389 63.3642C4.33389 62.8573 4.50306 59.1402 4.50306 57.7888C4.50306 57.6197 4.67156 57.4505 4.84072 57.4505C5.00988 57.4505 5.34755 57.4505 6.02356 57.6197C6.69893 57.6197 6.86811 57.9573 6.86811 58.6333C6.86811 58.971 6.86811 63.195 6.86811 63.871V63.871Z"
     fill="#000C2C"
     id="path36" />
  <path
     d="M47.7541 77.0485C47.7541 76.3725 47.4164 75.6965 47.0788 75.1896C46.7404 74.8519 46.2336 74.6828 45.7267 74.6828H44.2062V71.6417C44.2062 71.1348 43.8685 70.7971 43.5308 70.7971H24.4397C24.1014 70.7971 23.7637 71.1348 23.7637 71.6417V79.7512C23.7637 80.2581 24.1014 80.5958 24.4397 80.5958H43.5308C43.8685 80.5958 44.2062 80.2581 44.2062 79.7512V76.7102H45.7267C45.7267 76.7102 45.8959 76.8793 45.8959 77.217L46.2336 80.5958C46.2336 80.765 46.2336 80.9341 45.2199 81.441C44.0377 81.9478 35.4213 85.8335 34.7452 86.3403C33.9007 86.8471 33.3939 87.8609 33.3939 89.2122V90.2266H33.0555C32.7178 90.2266 32.3801 90.5643 32.3801 90.902L31.7041 108.979C31.7041 109.318 32.0424 109.655 32.3801 109.655H36.0966C36.435 109.655 36.7726 109.317 36.7726 108.979L36.2657 90.7328C36.2657 90.3951 35.9281 90.0574 35.5897 90.0574H35.2521V89.0437C35.2521 88.1985 35.5904 87.8609 35.7589 87.8609C36.4349 87.5225 45.0514 83.6369 46.0651 83.13C47.0788 82.6232 48.0925 81.9478 48.0925 80.5958L47.7541 77.0485V77.0485Z"
     fill="#000C2C"
     id="path38" />
  <path
     d="M24.9448 84.4943C22.0728 80.1011 19.0318 80.1011 15.8222 81.7908L14.8078 81.96C14.8078 81.96 14.8078 81.96 14.6393 81.96C14.301 81.96 13.7948 81.6217 13.4564 81.284L12.6119 80.1011L12.9496 79.9326C13.1187 79.7634 13.2879 79.4257 13.1187 79.088L5.68516 69.1196C5.516 68.951 5.17831 68.951 4.83999 69.1196L2.13722 71.3161C1.79889 71.4846 1.79888 71.823 1.96804 72.1607L10.2468 81.4531C10.4153 81.6217 10.7536 81.6217 11.0913 81.4531L11.2605 81.284L12.1051 82.4669C12.4427 82.9737 12.9496 83.3114 13.2879 83.4805C10.5845 85.6765 9.23312 88.3799 12.1051 92.7724C15.3153 97.6723 24.6071 101.558 26.1277 100.544C27.6482 99.5306 28.155 89.5627 24.9448 84.4943V84.4943Z"
     fill="#ED1C24"
     id="path40" />
  <path
     d="M101.817 23.31V20.9449C101.817 18.2415 99.6207 16.0449 97.0865 16.0449C94.3831 16.0449 92.1865 18.2415 92.1865 20.7757V23.8168C92.1865 23.8168 92.1865 25.1682 93.3694 25.1682H102.999V26.8579H104.689V23.986V23.31H101.817V23.31ZM96.9173 22.8031C95.9036 22.8031 95.0591 21.9586 95.0591 20.9449C95.0591 19.9312 95.9036 19.086 96.9173 19.086C97.931 19.086 98.7755 19.9312 98.7755 20.9449C98.9447 21.9586 98.1002 22.8031 96.9173 22.8031Z"
     fill="#000C2C"
     id="path42" />
  <path
     d="M58.7358 42.409C58.7358 39.537 57.5529 35.4823 57.0461 33.9618C56.7077 33.1172 56.5392 32.4412 56.2015 31.5966C56.2015 31.5966 56.2015 31.4275 56.0323 31.4275C56.0323 31.2589 56.0323 31.259 56.0323 31.259C56.0323 30.583 56.7084 29.7384 56.5392 29.4001C56.5392 29.0624 56.2015 28.8933 55.5255 28.8933C55.0187 28.8933 54.3426 29.0624 54.005 29.0624V28.8933V26.8659H53.6673C53.6673 26.5282 53.6673 26.359 53.6673 26.0213V25.8521C53.6673 25.5144 53.6673 25.3453 53.4981 25.0076L54.3427 24.8385C54.3427 24.8385 54.3427 24.8384 54.3427 24.6699C54.3427 24.6699 54.5118 21.4596 54.5118 20.9528C54.5118 20.6151 54.3427 20.2768 54.3427 20.2768L51.6399 15.7151L50.6262 15.5466H50.2878H50.1193L49.1056 15.7151L46.4022 20.2768C46.4022 20.2768 46.2331 20.6151 46.2331 20.9528C46.2331 21.2905 46.4022 24.6693 46.4022 24.6693V24.8385L47.2468 25.0076C46.9091 25.3453 46.9091 25.5144 46.9091 25.8521V26.0213C46.9091 26.359 46.9091 26.5282 47.0782 26.8659L46.5714 27.035V29.2309C46.2331 29.2309 45.5571 29.0624 45.0508 29.0624C44.3748 29.0624 44.0371 29.2309 44.0371 29.5693C44.0371 29.9069 44.7125 30.7515 44.544 31.4275C44.544 31.596 44.544 31.7651 44.544 31.9343C44.2057 32.7788 43.868 33.4549 43.5303 34.2994C43.0228 35.6514 42.0097 39.8748 41.8405 42.7467C41.8405 45.281 41.5023 47.3084 42.3474 49.8426C42.6851 51.0255 43.192 52.0391 43.6988 53.222C43.868 53.7289 44.5434 53.8974 45.0502 53.8974C45.7262 53.7289 46.5708 53.7289 47.2468 53.5597C47.4159 53.5597 47.5844 53.3905 47.7536 53.2214C47.7536 53.2214 47.7536 53.2214 47.9228 53.0528C48.0913 52.8837 48.0913 52.7145 48.0913 52.546C48.0913 52.2077 48.0913 51.87 48.0913 51.5323C48.0913 51.3632 48.0913 50.8563 48.0913 50.5186C48.0913 50.1803 48.0913 49.8426 47.9228 49.6734C47.5845 49.5049 47.5845 48.9981 47.4159 48.4912C46.9091 43.0844 47.7536 37.6782 49.9502 32.6097C50.2879 31.4268 50.1187 30.92 49.9502 30.5823V28.8926C50.1187 28.8926 50.2879 28.8926 50.6256 28.8926C50.7947 28.8926 50.9639 28.8926 51.3016 28.8926V30.5823C51.1324 30.9206 50.9632 31.4268 51.3016 32.6097C53.4975 37.6782 54.3426 43.0844 53.8358 48.4912C53.8358 48.8289 53.6666 49.5049 53.3289 49.6734C53.1598 49.8426 53.1598 50.1803 53.1598 50.5186C53.1598 50.8563 53.1598 51.194 53.1598 51.5323C53.1598 51.87 53.1598 52.2077 53.1598 52.546C53.1598 52.7145 53.1598 52.8837 53.3289 53.0528C53.3289 53.0528 53.329 53.0529 53.4975 53.2214C53.6667 53.3905 53.8358 53.3906 54.0043 53.5597C54.6803 53.7282 55.5249 53.7282 56.2009 53.8974C56.7077 54.0665 57.2146 53.7289 57.5523 53.222C58.0591 52.2077 58.566 51.0255 58.9043 49.8426C59.0734 46.9707 58.7358 44.9432 58.7358 42.409V42.409ZM50.2878 20.9528C49.781 20.9528 49.4433 20.446 49.4433 19.77C49.4433 19.094 49.781 18.5871 50.2878 18.5871C50.7947 18.5871 51.1324 19.094 51.1324 19.77C51.133 20.2768 50.7947 20.9528 50.2878 20.9528Z"
     fill="#000C2C"
     id="path44" />
  <path
     d="M68.1977 61.4935C67.6908 60.9866 63.9737 60.649 62.2846 60.649C62.2846 60.649 62.2847 60.649 62.1155 60.649C57.047 60.4798 51.6408 60.1421 51.8093 60.1421C50.9648 60.1421 49.782 60.649 49.4443 60.9866C49.4443 60.9866 49.2751 61.1558 49.2751 61.325C49.1066 61.4935 48.5998 61.4935 48.0929 61.4935C46.7409 61.4935 45.8963 61.4935 44.8826 61.8318H44.7134C44.2066 62.0003 43.869 62.1695 43.869 62.5072V62.6764V62.8455C43.7004 62.8455 43.5312 63.014 43.3621 63.014C43.1935 63.014 43.1936 63.1832 43.1936 63.3524C43.0244 63.3524 42.8552 63.3523 42.8552 63.5209C42.8552 63.5209 42.8552 63.5209 42.8552 63.69V63.8586V64.8729C43.0244 64.8729 43.1936 65.0414 43.1936 65.0414C43.1936 65.2106 43.1935 65.2106 43.3621 65.3798C43.3621 65.3798 43.3621 65.3798 43.5312 65.3798C43.5312 65.3798 43.6998 65.3798 43.869 65.5483C43.869 65.5483 44.0381 65.5483 44.0381 65.7174V66.0552C44.0381 66.3935 44.3758 66.562 45.0518 66.7312C46.2346 67.0688 47.2477 67.238 48.5997 67.238C48.7683 67.238 49.1066 67.238 49.2751 67.238C49.4443 67.238 49.6134 67.5757 49.782 67.7448C50.6271 68.5894 53.4991 68.7585 54.0059 68.7585C54.6819 68.7585 55.0196 69.0963 55.5265 69.6031C56.2025 70.2791 56.2025 70.9551 56.2025 71.4619C56.2025 71.9688 56.2024 72.3065 56.7093 72.3065C56.8778 72.3065 57.047 72.3065 57.047 72.3065C57.2162 72.3065 58.3984 72.475 58.5676 72.6442C59.0744 72.8133 59.2436 72.9825 59.5812 74.3339C59.9196 75.8544 60.2572 78.051 60.2572 78.2196C60.2572 78.2196 60.2572 78.3887 60.2572 78.5578C60.2572 78.5578 60.2573 78.7264 60.0881 78.7264C59.9196 78.7264 59.9196 78.7264 59.7504 78.7264C59.2436 78.7264 58.9053 78.8956 58.7367 78.8956C58.3984 78.8956 58.0607 79.0647 58.0607 79.0647C57.723 79.2332 57.047 79.4024 56.2025 79.7401C55.6956 79.9092 55.3573 80.4161 55.3573 80.5846C55.3573 80.9229 55.1888 84.1326 55.1888 84.1326C55.1888 84.3017 55.1888 84.3017 55.3573 84.4709C55.3573 84.6401 55.5265 84.64 55.5265 84.8086C55.5265 84.9777 55.8641 85.1469 55.8641 85.1469C55.8641 85.1469 56.0333 85.3154 56.371 85.3154C56.5402 85.3154 67.3525 85.3154 67.3525 85.3154C67.3525 85.3154 67.5217 85.3154 67.6909 85.1469C67.8594 84.9777 67.8594 84.8086 68.0285 84.8086C68.0285 84.8086 68.1977 84.6401 68.1977 84.4709L68.3669 82.7812V80.9229C68.3669 80.4161 68.3669 80.0784 68.1977 79.9092C68.1977 79.7401 68.0286 79.5709 67.6909 79.4024C67.5217 79.4024 67.3525 79.2332 67.184 79.2332V78.8956C67.184 78.7264 67.0149 78.0503 67.0149 77.7127L66.3395 75.3476C66.3395 75.3476 65.8326 72.9825 65.3258 70.6168C65.1566 69.9414 65.1566 69.6031 65.3258 69.4345C65.4943 69.2654 65.6634 69.2654 65.8326 69.2654C65.8326 69.2654 66.3395 69.2654 66.8463 69.0962C67.0148 69.0962 67.184 69.0962 67.3531 68.9277C67.3531 68.9277 67.6909 68.9277 67.6909 68.7585C67.86 68.7585 67.86 68.59 68.0291 68.59C68.536 68.2517 68.7045 67.5763 68.7045 67.238C69.0422 66.3935 69.2114 62.1695 68.1977 61.4935V61.4935Z"
     fill="#ED1C24"
     id="path46" />
  <path
     d="M102.324 28.7188C97.7629 28.7188 94.2149 29.7325 94.2149 31.0845L94.0464 47.3037C94.0464 48.6551 97.7629 49.6687 102.156 49.6687C106.718 49.6687 110.266 48.6551 110.266 47.3037L110.434 31.0845C110.434 29.7325 106.718 28.7188 102.324 28.7188ZM102.156 30.4085C106.042 30.4085 108.576 30.9153 108.744 31.5913H108.745C108.576 32.2667 105.704 32.9427 102.324 32.9427C98.9457 32.9427 96.2424 32.4359 95.9047 31.5913C96.0738 30.9153 98.2697 30.4085 102.156 30.4085ZM107.225 42.4037C106.886 42.5728 106.548 42.2352 106.548 41.7283V38.1804C106.379 37.3352 105.704 37.3352 105.197 37.5044C104.859 37.6735 104.521 38.1804 104.521 38.6872V38.8558C104.521 39.3626 104.183 39.8694 103.845 40.0386C103.507 40.2071 103.17 39.8694 103.17 39.3626V34.8009C104.69 34.8009 106.211 34.6324 107.225 34.2941C107.562 34.2941 107.9 34.1255 108.069 34.1255V41.5592C108.069 41.7283 107.731 42.2351 107.225 42.4037V42.4037Z"
     fill="#ED1C24"
     id="path48" />
  <path
     d="M65.8312 115.067C70.3922 112.702 73.6025 108.647 74.4476 103.917H42.0093C42.8538 108.647 46.0641 112.702 50.6257 115.067H65.8312Z"
     fill="#000C2C"
     id="path50" />
  <path
     d="M44.5444 103.395V96.1301H49.7814C49.7814 96.1301 49.9506 97.1438 51.8088 96.637C53.8362 96.2986 59.2431 95.1165 59.2431 95.1165C59.2431 95.1165 59.9185 95.1164 60.0876 95.6233C60.2568 95.961 60.4253 97.4815 60.4253 97.4815L55.0191 98.8335C55.0191 98.8335 52.3157 99.3404 50.7952 101.029C49.7815 102.212 49.7814 103.395 49.7814 103.395H44.5444V103.395Z"
     fill="#000C2C"
     id="path52" />
  <path
     d="M44.3753 95.2841C44.3753 95.2841 43.8684 93.4259 45.0513 92.4122C46.2335 91.3985 48.7678 90.554 52.1472 89.3711C55.526 88.3574 55.6951 88.1882 55.6951 88.1882C55.6951 88.1882 56.3705 89.8779 55.1883 90.3848C53.8363 90.7225 49.7815 92.0745 49.7815 93.4259C49.7815 94.6088 49.7815 93.5951 49.7815 95.2841C49.7815 95.2841 48.2609 95.4533 47.2472 95.4533C45.389 95.4533 44.3753 95.2841 44.3753 95.2841Z"
     fill="#000C2C"
     id="path54" />
  <path
     d="M75.4629 12.5021C75.4629 16.5563 78.6731 19.7666 82.7279 19.7666C86.7827 19.7666 89.9923 16.5563 89.9923 12.5021C89.9923 8.44733 86.7827 5.23706 82.7279 5.23706C78.6731 5.40622 75.4629 8.61586 75.4629 12.5021Z"
     fill="#000C2C"
     id="path56" />
  <path
     d="M89.6535 17.9077C89.485 17.7386 89.3158 17.7386 89.1467 17.7386C88.9781 17.7386 88.6398 17.9077 88.4713 18.0769C86.9507 19.766 84.9234 20.6112 82.5583 20.6112C78.1651 20.6112 74.6172 17.0632 74.6172 12.6701C74.6172 10.305 75.6309 8.10843 77.4898 6.58788C77.8274 6.25019 77.8274 5.74335 77.6582 5.40566C77.4897 5.2365 77.3206 5.06738 76.9829 5.06738C76.8138 5.06738 76.6446 5.06733 76.476 5.23649C74.2795 7.09473 73.0966 9.79818 73.0966 12.6701C73.0966 13.177 73.0966 13.6838 73.2658 14.3598V17.7386C73.2658 17.7386 73.4349 19.2591 71.5761 19.2591C71.4076 19.2591 71.2384 19.2591 71.2384 19.2591C69.3795 19.09 66.8452 18.7523 63.6356 18.9208C62.9596 18.9208 62.2836 18.7523 61.946 18.7523C61.7768 18.7523 61.7768 18.9208 61.7768 18.9208C61.6083 19.4277 61.6083 22.8071 61.7768 23.4824C61.7768 23.4824 61.7768 23.6516 61.946 23.6516C62.4528 23.6516 63.1288 23.6516 63.8042 23.6516C66.5076 23.8208 68.7042 23.6516 70.3932 23.6516C71.9138 23.6516 72.7589 23.4824 72.9275 24.3276C73.0966 25.1722 73.9411 25.3413 74.2795 25.3413C74.6172 25.3413 74.7864 25.003 74.7864 24.1585C74.7864 23.8208 74.7864 23.4825 74.7864 22.9756L76.6446 22.9762V25.5105L76.8138 28.5516L76.9822 31.2543C76.9822 31.2543 77.8275 34.1269 78.1651 34.9715C78.3343 35.4783 78.8411 36.8297 79.0096 37.3366C79.5165 39.7023 80.1925 43.9256 81.3754 47.1359C81.5439 47.4736 81.8822 48.4873 82.0508 48.6564C82.0508 48.825 82.2199 48.8249 82.2199 48.9941C82.3891 49.1633 82.3891 49.3324 82.5576 49.5009C82.7267 49.5009 82.7268 49.6701 82.8959 49.8393C82.8959 49.8393 82.8959 49.8393 82.8959 50.0078C83.0645 50.177 83.2336 50.177 83.4028 50.177C83.5713 50.6838 83.9097 51.3592 83.9097 51.3592L85.5993 50.6838L85.4302 50.0078C85.4302 50.0078 85.4302 49.8393 85.5987 49.8393C85.937 49.8393 86.1055 49.6701 86.2747 49.5009L86.4439 49.3324C86.4439 49.1633 86.6124 48.4872 86.2747 48.3181C85.7679 47.9804 85.261 47.6427 85.0919 47.4735L84.9233 47.305C84.9233 46.9667 84.585 46.1222 84.4165 45.1085C84.4165 45.1085 84.4165 45.1085 84.4165 44.9393V44.7708C84.4165 44.7708 84.585 44.7707 84.7541 44.6016C84.9233 44.6016 84.9233 44.4331 84.9233 44.4331C84.9233 44.4331 85.0919 44.2639 85.0919 44.0948C85.0919 43.9262 85.0919 43.7571 85.0919 43.5879V43.4194L84.7541 42.2365C84.7541 42.0674 84.585 41.8982 84.585 41.7297C84.585 41.7297 84.585 41.5605 84.7541 41.5605C84.7541 41.5605 85.0919 41.392 85.261 41.392C85.5987 41.392 85.5987 41.2228 85.7679 40.8852C85.7679 40.716 86.1055 39.1954 86.1055 39.1954C86.2747 38.5194 85.7679 37.3372 85.5987 35.3098C85.5987 33.9578 85.5987 32.2687 85.5987 30.7481C85.5987 30.7481 85.5987 30.7481 85.5987 30.579C85.5987 28.2139 85.7679 26.1865 85.937 25.1728C85.937 25.0036 86.1055 24.3276 86.1055 24.3276C86.1055 24.3276 86.1055 22.4694 86.1055 21.9626C86.4439 21.7934 86.6124 21.7934 86.9507 21.6248C88.1329 21.118 89.1467 20.2728 90.1604 19.4283C90.3295 19.2598 90.3295 19.0906 90.3295 18.7523C89.9918 18.2454 89.8226 18.0769 89.6535 17.9077V17.9077Z"
     fill="#000C2C"
     id="path58" />
  <path
     d="M111.278 70.7925L108.744 68.2583L108.575 68.0891H107.223C106.378 68.0891 105.871 68.596 105.534 69.272H103.844C103.844 68.7651 103.844 68.2583 103.844 67.9206C103.844 65.8932 102.83 64.5412 102.83 64.5412L100.127 61.5001C100.127 60.3179 97.7616 59.3042 94.7205 59.3042C91.6794 59.3042 89.3143 60.3179 89.3143 61.5001L86.6109 64.5412C86.6109 64.5412 85.5972 65.8932 85.5972 67.9206C85.5972 68.2583 85.5972 68.7651 85.5972 69.272H83.9082V68.9337C83.9082 68.4268 83.5698 68.0891 83.0636 68.0891C82.5568 68.0891 82.2184 68.4275 82.2184 68.9337V79.5775C82.2184 80.7604 82.8945 81.6049 83.9082 81.9432L81.8808 84.9843C81.7122 85.322 81.7122 85.8289 82.2191 86.1665C82.5567 86.3357 83.0636 86.3357 83.4013 85.8289L85.9356 81.9432H102.155C102.155 84.3083 104.014 86.1665 106.379 86.1665C108.744 86.1665 110.603 84.3083 110.603 81.9432C110.603 79.9158 109.082 78.057 107.223 77.7193V76.3679H110.095C110.94 76.3679 111.616 75.6919 111.616 74.8473V70.9617C111.447 70.9617 111.447 70.9617 111.278 70.7925V70.7925ZM94.552 61.5001C96.5794 61.5001 98.2684 62.1761 98.2684 63.0206V63.1898C97.4239 63.6967 96.0726 64.0344 94.552 64.0344C93.0315 64.0344 91.6794 63.6967 90.8349 63.1898V63.0206C90.8349 62.1761 92.5246 61.5001 94.552 61.5001ZM107.561 82.1124C107.561 82.7878 106.885 83.4638 106.21 83.4638C105.534 83.4638 104.858 82.7878 104.858 82.1124C104.858 81.4364 105.534 80.7604 106.21 80.7604C107.054 80.7604 107.561 81.4364 107.561 82.1124ZM105.364 78.057C103.844 78.3953 102.662 79.409 102.155 80.7604H84.9218C84.2458 80.7604 83.739 80.2535 83.739 79.5782V71.1303H85.4287C85.4287 72.82 85.4287 74.509 85.4287 74.509C85.4287 74.509 85.9356 79.2398 94.552 79.2398C103.168 79.2398 103.675 74.509 103.675 74.509C103.675 74.509 103.675 72.82 103.675 71.1303H105.364V76.8748V78.057Z"
     fill="#000C2C"
     id="path60" />
  <path
     d="M23.595 31.2594L36.7731 27.2047L16.8374 24.8396L4.33472 27.7115L23.595 31.2594Z"
     fill="#ED1C24"
     id="path62" />
  <path
     d="M4.33472 33.6296V36.6707L23.595 40.7255L36.7731 35.4878V32.616L23.595 37.5153L4.33472 33.6296Z"
     fill="#ED1C24"
     id="path64" />
  <path
     d="M23.595 32.7729L4.33472 29.2249V32.0975L23.595 35.9832L36.7731 31.2523V28.5496L23.595 32.7729Z"
     fill="#ED1C24"
     id="path66" />
  <path
     d="M36.7731 36.8408L23.595 42.2477L4.33472 38.0237V39.0374V41.0648L23.595 45.4573L36.7731 39.7134V37.8545V36.8408Z"
     fill="#ED1C24"
     id="path68" />
  <path
     d="M4.33472 42.4171V47.6547L7.88267 48.4993V46.6411L12.2751 47.8239V49.8513L15.6546 50.6959V48.837L20.2162 50.0199V52.0472L23.595 52.8924L26.1292 51.5404V49.6821L28.8326 48.1616V50.0199L31.7046 48.3301V46.6411L34.408 45.2897V46.8102L36.7731 45.6273V41.0657L23.595 46.9787L4.33472 42.4171Z"
     fill="#ED1C24"
     id="path70" />
  <path
     d="M88.6413 89.5569C88.6413 89.05 88.3036 88.5431 87.6276 88.5431C87.2899 88.5431 87.1207 88.7116 86.9522 88.8808C86.2762 89.5568 84.0797 90.9082 83.066 91.0774C82.7283 91.0774 82.3906 91.2459 82.0522 91.2459C80.3632 91.2459 79.3494 90.5705 79.0111 89.5562C78.8426 89.3877 78.8426 89.0494 78.8426 88.7117V88.5431V88.374C78.8426 88.0363 78.6735 87.5295 78.6735 87.1911V87.0226V86.8534V86.6842C78.6735 86.6842 78.6735 85.8397 78.6735 85.502V80.2644L79.1803 78.7439C79.5186 71.9863 79.3495 57.1185 79.3495 57.1185C79.3495 56.95 78.1666 56.4431 76.4769 56.4431C74.7878 56.4431 73.4358 56.95 73.4358 57.1185C73.4358 57.1185 73.9426 71.9863 74.281 78.7439L74.9563 80.2644V84.3192C74.9563 87.698 74.6187 88.7116 74.6187 88.8808C74.1118 90.2322 73.2666 91.9219 70.7324 91.9219C70.7324 91.2459 70.5639 91.2459 70.5639 91.2459H68.0296C67.5228 91.2459 67.0159 91.2459 67.0159 91.2459L66.8474 91.5843C66.6782 92.0911 66.6782 92.9356 66.6782 93.9493C66.6782 94.963 66.8474 95.9767 66.8474 96.315C66.8474 96.4836 67.0159 96.4836 67.0159 96.4836C67.0159 96.4836 70.3947 96.6527 70.5639 96.6527C70.7331 96.6527 70.733 95.9767 70.733 95.9767C70.9015 95.9767 70.9016 95.9767 71.0707 95.9767C72.5913 95.9767 73.4364 96.4835 73.7741 96.6527H73.9427C74.281 96.8212 74.4495 96.9904 74.4495 96.9904C74.6187 96.9904 74.6187 96.9904 75.2947 96.9904C76.8152 96.9904 79.1803 96.6527 81.8831 95.639C82.5591 95.3007 83.4036 94.963 84.0796 94.4561C85.2625 93.9493 88.6413 91.0774 88.8105 90.7397C88.4728 90.0637 88.6413 89.8946 88.6413 89.5569V89.5569Z"
     fill="#000C2C"
     id="path72" />
  <text
     xml:space="preserve"
     id="text364"
     style="font-weight:bold;font-size:26.2667px;font-family:'Nimbus Roman';-inkscape-font-specification:'Nimbus Roman,  Bold';text-align:center;white-space:pre;shape-inside:url(#rect366);fill:#000c2c;fill-opacity:1" />
  <text
     xml:space="preserve"
     id="text1427"
     style="font-weight:bold;font-size:37.3333px;font-family:'Nimbus Roman';-inkscape-font-specification:'Nimbus Roman,  Bold';text-align:center;white-space:pre;shape-inside:url(#rect1429);shape-padding:1.04353;fill:#000c2c;fill-opacity:1"
     x="-87.32357"
     y="0"
     transform="translate(-13.280649,-9.1295807)"><tspan
       x="142.59961"
       y="51.807152"
       id="tspan1523"><tspan
         style="font-family:'Ubuntu Mono';-inkscape-font-specification:'Ubuntu Mono Bold';text-align:start;text-anchor:start"
         id="tspan1521">Стандартное
</tspan></tspan><tspan
       x="142.59961"
       y="104.2754"
       id="tspan1527"><tspan
         style="font-family:'Ubuntu Mono';-inkscape-font-specification:'Ubuntu Mono Bold';text-align:start;text-anchor:start"
         id="tspan1525">оборудование</tspan></tspan></text>
</svg>
