<svg width="24" height="19" viewBox="0 0 24 19" fill="none" xmlns="http://www.w3.org/2000/svg">
<path d="M21.4975 15.5H2.5026C1.67278 15.5 1 15.8371 1 16.2529V17.2471C1 17.6629 1.67278 18 2.5026 18H21.4975C22.3273 18 23 17.6629 23 17.2471V16.2529C23 15.8371 22.3273 15.5 21.4975 15.5Z" fill="white"/>
<path d="M9.52197 16.6992H3.47818C3.21413 16.6992 3 16.9689 3 17.3015V18.097C3 18.4297 3.21413 18.6992 3.47818 18.6992H9.52197C9.78596 18.6992 10 18.4297 10 18.097V17.3015C10 16.9689 9.78596 16.6992 9.52197 16.6992Z" fill="#385081"/>
<path d="M20.5219 16.6992H14.478C14.214 16.6992 14 16.9689 14 17.3015V18.097C14 18.4297 14.214 18.6992 14.478 18.6992H20.5219C20.786 18.6992 21 18.4297 21 18.097V17.3015C21 16.9689 20.786 16.6992 20.5219 16.6992Z" fill="#385081"/>
<path d="M17.4369 10.5912L7.63098 0.785272C7.20269 0.356987 6.7114 0.153838 6.53368 0.331557L6.10837 0.756862C5.93065 0.93458 6.1338 1.42588 6.56209 1.85416L16.3681 11.6601C16.7963 12.0884 17.2876 12.2915 17.4653 12.1138L17.8906 11.6885C18.0683 11.5108 17.8652 11.0195 17.4369 10.5912Z" fill="white"/>
<path d="M16.3696 0.775942L6.56359 10.5819C6.13531 11.0102 5.93216 11.5015 6.10987 11.6792L6.53519 12.1045C6.7129 12.2822 7.2042 12.0791 7.63248 11.6508L17.4385 1.84483C17.8667 1.41654 18.0698 0.925306 17.8921 0.747589L17.4668 0.322275C17.2891 0.144558 16.7979 0.347657 16.3696 0.775942Z" fill="white"/>
</svg>
