<svg width="32" height="32" viewBox="0 0 32 32" fill="none" xmlns="http://www.w3.org/2000/svg">
<g id="orange_secondary 2">
<g clip-path="url(#clip0_7901_12144)">
<rect width="32" height="32" rx="16" fill="#ED1C24"/>
<g id="Clip path group">
<mask id="mask0_7901_12144" style="mask-type:luminance" maskUnits="userSpaceOnUse" x="0" y="0" width="69" height="32">
<g id="clip0_1074_295">
<path id="Vector" d="M68.6306 0H0V32H68.6306V0Z" fill="white"/>
</g>
</mask>
<g mask="url(#mask0_7901_12144)">
<g id="Group">
<path id="Vector_2" d="M16 16.001C17.1083 16.001 18.1058 15.5577 18.8313 14.8322C19.5567 14.1068 20 13.0992 20 12.001C20 10.8927 19.5567 9.89518 18.8313 9.16974C18.1058 8.4443 17.1083 8.00098 16 8.00098C14.8917 8.00098 13.8942 8.4443 13.1688 9.16974C12.4433 9.89518 12 10.8927 12 12.001C12 13.1093 12.4433 14.1068 13.1688 14.8322C13.8942 15.5476 14.8917 16.001 16 16.001ZM14.7204 10.7113C15.0529 10.3788 15.5063 10.1773 16 10.1773C16.5038 10.1773 16.9572 10.3788 17.2796 10.7113C17.6121 11.0438 17.8136 11.4972 17.8136 11.9909C17.8136 12.4846 17.6121 12.9481 17.2796 13.2705C16.9471 13.603 16.4937 13.8045 16 13.8045C15.4962 13.8045 15.0428 13.603 14.7204 13.2705C14.3879 12.938 14.1864 12.4846 14.1864 11.9909C14.1864 11.4972 14.3879 11.0438 14.7204 10.7113Z" fill="white"/>
<path id="Vector_3" d="M21.3043 17.6411L20.144 16.0757C20.0746 15.9871 19.9556 15.9773 19.8664 16.0462C18.7755 16.9716 17.4367 17.5623 15.9988 17.5623C14.5608 17.5623 13.2221 16.9618 12.1312 16.0462C12.0519 15.9773 11.923 15.9871 11.8535 16.0757L10.7032 17.6411C10.6437 17.7199 10.6635 17.8281 10.733 17.8872C11.7048 18.6748 12.8353 19.1966 14.0154 19.4723L11.5759 23.7352C11.5164 23.8533 11.6056 24.001 11.7445 24.001H14.1344C14.2038 24.001 14.2733 23.9616 14.303 23.8927L16.0087 20.1122L17.7144 23.8927C17.7442 23.9616 17.8136 24.001 17.883 24.001H20.273C20.4118 24.001 20.501 23.8533 20.4316 23.7352L17.9921 19.4723C19.1722 19.1966 20.2928 18.6748 21.2646 17.8872C21.344 17.8281 21.3539 17.7199 21.3043 17.6411Z" fill="white"/>
</g>
</g>
</g>
</g>
</g>
<defs>
<clipPath id="clip0_7901_12144">
<rect width="32" height="32" rx="16" fill="white"/>
</clipPath>
</defs>
</svg>
